<?xml version="1.0" encoding="iso-8859-1"?>
<!-- Generator: Adobe Illustrator 19.0.0, SVG Export Plug-In . SVG Version: 6.00 Build 0)  -->
<svg version="1.1" id="Layer_1" xmlns="http://www.w3.org/2000/svg" xmlns:xlink="http://www.w3.org/1999/xlink" x="0px" y="0px"
	 viewBox="0 0 512 512" style="enable-background:new 0 0 512 512;" xml:space="preserve">
<g>
	<g>
		<path d="M503.467,247.467H264.533V8.533C264.533,3.823,260.719,0,256,0s-8.533,3.823-8.533,8.533v238.933H8.533
			C3.814,247.467,0,251.29,0,256s3.814,8.533,8.533,8.533h238.933v238.933c0,4.71,3.814,8.533,8.533,8.533s8.533-3.823,8.533-8.533
			V264.533h238.933c4.719,0,8.533-3.823,8.533-8.533S508.186,247.467,503.467,247.467z"/>
	</g>
</g>
<g>
	<g>
		<path d="M384,281.6h-93.867c-4.719,0-8.533,3.823-8.533,8.533V384c0,4.71,3.814,8.533,8.533,8.533H384
			c4.719,0,8.533-3.823,8.533-8.533v-93.867C392.533,285.423,388.719,281.6,384,281.6z"/>
	</g>
</g>
<g>
	<g>
		<path d="M221.867,281.6H128c-4.719,0-8.533,3.823-8.533,8.533V384c0,4.71,3.814,8.533,8.533,8.533h93.867
			c4.719,0,8.533-3.823,8.533-8.533v-93.867C230.4,285.423,226.586,281.6,221.867,281.6z"/>
	</g>
</g>
<g>
	<g>
		<path d="M221.867,119.467H128c-4.719,0-8.533,3.823-8.533,8.533v93.867c0,4.71,3.814,8.533,8.533,8.533h93.867
			c4.719,0,8.533-3.823,8.533-8.533V128C230.4,123.29,226.586,119.467,221.867,119.467z"/>
	</g>
</g>
<g>
	<g>
		<path d="M384,119.467h-93.867c-4.719,0-8.533,3.823-8.533,8.533v93.867c0,4.71,3.814,8.533,8.533,8.533H384
			c4.719,0,8.533-3.823,8.533-8.533V128C392.533,123.29,388.719,119.467,384,119.467z"/>
	</g>
</g>
<g>
</g>
<g>
</g>
<g>
</g>
<g>
</g>
<g>
</g>
<g>
</g>
<g>
</g>
<g>
</g>
<g>
</g>
<g>
</g>
<g>
</g>
<g>
</g>
<g>
</g>
<g>
</g>
<g>
</g>
</svg>
